<svg id="svg" version="1.1" xmlns="http://www.w3.org/2000/svg" xmlns:xlink="http://www.w3.org/1999/xlink" width="400" height="399.6669442131557" viewBox="0, 0, 400,399.6669442131557"><g id="svgg"><path id="path0" d="M187.677 14.872 C 156.493 17.353,131.027 25.088,106.078 39.657 C 22.433 88.503,-9.581 193.383,32.624 280.295 C 69.857 356.965,154.020 398.284,237.427 380.838 C 336.701 360.073,401.107 261.896,380.637 162.531 C 364.527 84.329,299.912 24.898,221.149 15.838 C 211.871 14.771,195.052 14.286,187.677 14.872 M209.992 30.649 C 291.048 36.017,357.084 97.603,367.653 177.685 C 380.964 278.539,303.811 368.255,202.331 369.928 L 191.674 370.104 189.842 371.892 C 179.656 381.833,167.482 383.408,166.321 374.934 C 166.146 373.662,166.796 369.056,167.345 367.670 C 167.513 367.247,167.122 367.069,165.292 366.734 C 99.704 354.740,44.596 298.718,32.178 231.413 C 12.114 122.661,100.055 23.369,209.992 30.649 M173.189 74.099 C 136.278 82.226,106.593 103.611,87.818 135.599 C 82.859 144.049,76.230 159.908,75.067 166.108 L 74.863 167.194 199.319 167.194 C 317.694 167.194,323.766 167.166,323.598 166.611 C 323.500 166.291,322.885 164.250,322.230 162.075 C 316.303 142.395,304.700 123.404,289.539 108.569 C 284.738 103.872,279.095 98.853,281.328 101.267 C 284.146 104.312,283.336 108.703,276.939 125.062 C 268.735 146.041,263.621 152.991,255.773 153.830 C 253.085 154.117,253.052 154.149,252.299 157.145 C 252.002 158.326,251.538 159.722,251.267 160.246 L 250.774 161.199 198.318 161.199 L 145.862 161.199 145.528 160.321 C 144.503 157.625,143.932 148.930,144.430 143.605 C 145.447 132.741,146.526 130.517,151.499 129.040 C 153.626 128.409,154.205 127.596,154.205 125.238 C 154.206 122.901,155.008 121.277,156.600 120.392 L 157.830 119.707 154.352 112.979 C 149.450 103.495,149.428 103.648,156.370 99.009 C 161.868 95.335,161.736 95.481,170.908 82.931 C 178.495 72.549,178.019 73.267,177.292 73.301 C 176.959 73.317,175.112 73.676,173.189 74.099 M248.959 81.527 C 249.142 81.690,254.463 84.874,260.783 88.603 C 267.102 92.332,273.959 96.399,276.020 97.641 C 278.081 98.883,279.767 99.843,279.767 99.776 C 279.767 99.207,268.250 91.330,262.948 88.272 C 258.863 85.917,248.013 80.685,248.959 81.527 M74.605 232.723 C 74.605 233.393,77.476 242.364,78.830 245.926 C 83.729 258.815,89.957 269.676,98.948 281.011 C 101.857 284.678,109.753 292.976,108.698 291.257 C 104.961 285.166,105.057 284.584,111.596 273.712 C 113.324 270.840,115.487 267.180,116.403 265.579 C 121.087 257.392,128.214 252.328,137.929 250.285 C 146.342 248.516,148.849 247.095,149.761 243.578 C 150.038 242.508,150.651 240.920,151.122 240.050 L 151.979 238.468 209.712 238.468 C 259.858 238.468,267.444 238.531,267.444 238.950 C 267.444 240.216,265.326 254.703,264.279 260.596 C 262.314 271.663,259.207 278.394,248.435 294.921 C 245.928 298.768,243.527 302.739,243.100 303.747 C 239.377 312.533,233.021 320.051,224.810 325.382 L 222.648 326.786 224.146 326.573 C 232.029 325.454,246.744 320.441,256.575 315.525 C 289.468 299.080,312.846 270.788,323.344 234.721 L 323.999 232.473 199.302 232.473 C 130.718 232.473,74.605 232.585,74.605 232.723 " stroke="none" fill="#eb1c2c" fill-rule="evenodd"></path><path id="path1" d="M165.804 37.760 C 164.948 37.966,164.167 38.217,164.067 38.317 C 163.968 38.418,164.844 42.614,166.014 47.642 C 167.183 52.670,168.109 56.815,168.070 56.853 C 168.032 56.892,165.996 52.996,163.547 48.195 C 161.098 43.395,159.080 39.441,159.063 39.410 C 159.002 39.301,153.791 40.602,153.626 40.767 C 153.535 40.858,155.127 48.119,157.163 56.903 C 159.200 65.686,160.866 72.949,160.866 73.043 C 160.866 73.259,164.490 72.424,164.771 72.142 C 164.887 72.026,163.828 66.950,162.418 60.862 C 161.007 54.773,159.864 49.642,159.878 49.459 C 159.892 49.276,162.361 54.021,165.366 60.004 L 170.830 70.881 173.092 70.372 C 174.336 70.091,175.381 69.840,175.415 69.813 C 175.617 69.651,167.923 37.497,167.670 37.447 C 167.500 37.413,166.660 37.554,165.804 37.760 M131.890 48.429 C 128.155 50.075,126.421 51.004,126.475 51.329 C 126.520 51.592,129.268 58.023,132.582 65.621 C 135.896 73.218,138.808 79.911,139.053 80.495 L 139.498 81.555 145.371 79.006 C 151.914 76.165,151.558 76.568,150.211 73.522 L 149.528 71.978 145.812 73.620 C 143.768 74.524,142.050 75.217,141.994 75.161 C 141.820 74.986,138.277 66.803,138.161 66.306 C 138.089 65.995,139.013 65.403,140.883 64.561 C 142.516 63.826,143.676 63.110,143.624 62.868 C 143.552 62.527,142.244 59.400,142.011 59.012 C 141.976 58.954,140.656 59.467,139.076 60.153 C 137.346 60.905,136.091 61.278,135.918 61.092 C 135.645 60.797,132.556 53.827,132.556 53.506 C 132.556 53.421,134.205 52.636,136.220 51.760 C 138.235 50.885,139.883 50.064,139.883 49.937 C 139.883 49.284,138.115 45.965,137.777 45.985 C 137.562 45.998,134.913 47.098,131.890 48.429 M258.618 46.605 C 255.636 47.322,253.350 50.310,252.402 54.731 C 251.953 56.825,252.423 59.307,254.116 63.780 C 256.094 69.005,256.086 71.681,254.084 73.812 C 251.704 76.345,249.153 73.347,250.647 69.772 C 251.257 68.312,251.185 68.210,248.867 67.302 L 247.110 66.614 246.752 67.528 C 245.707 70.195,245.462 71.171,245.462 72.659 C 245.462 78.758,253.076 81.676,257.351 77.214 C 260.934 73.475,261.373 68.586,258.746 61.683 C 257.004 57.108,256.810 55.295,257.845 53.289 C 259.865 49.374,263.676 51.703,261.962 55.805 C 261.675 56.493,261.479 57.080,261.528 57.110 C 261.850 57.314,265.251 58.618,265.459 58.618 C 265.907 58.618,267.111 54.556,267.111 53.047 C 267.111 48.951,262.718 45.619,258.618 46.605 M195.122 53.279 C 189.373 55.017,182.598 62.250,179.112 70.374 C 178.344 72.164,176.795 74.825,175.389 76.769 C 162.431 94.695,161.996 95.208,156.799 98.709 C 149.353 103.725,149.406 103.411,154.352 112.979 L 157.830 119.707 156.600 120.392 C 155.008 121.277,154.206 122.901,154.205 125.238 C 154.205 127.596,153.626 128.409,151.499 129.040 C 146.526 130.517,145.447 132.741,144.430 143.605 C 143.932 148.930,144.503 157.625,145.528 160.321 L 145.862 161.199 152.282 161.172 C 158.434 161.146,158.653 161.123,157.535 160.613 C 156.721 160.242,155.499 160.096,153.477 160.128 C 149.302 160.195,149.355 160.264,148.641 153.791 C 147.405 142.570,149.009 134.323,152.682 133.023 C 156.427 131.698,157.951 129.817,158.384 125.988 C 158.593 124.141,158.708 123.906,159.581 123.544 C 163.022 122.119,162.901 120.805,158.534 112.195 L 154.871 104.971 158.927 102.221 C 161.158 100.709,163.856 98.560,164.921 97.446 C 168.339 93.873,180.447 77.111,181.903 73.938 C 186.719 63.442,193.586 56.219,197.891 57.120 C 200.349 57.635,210.476 63.338,235.137 78.097 C 244.388 83.634,257.727 91.570,264.779 95.733 C 277.689 103.354,279.101 104.336,279.101 105.689 C 279.101 108.378,270.120 131.957,266.711 138.218 C 261.617 147.574,259.694 149.280,253.358 150.057 C 250.952 150.353,249.631 151.676,248.766 154.657 C 248.185 156.662,247.612 158.254,246.563 160.783 C 246.435 161.091,246.958 161.199,248.582 161.199 C 251.127 161.199,251.339 160.968,252.299 157.145 C 253.052 154.149,253.085 154.117,255.773 153.830 C 264.639 152.883,271.993 141.160,281.060 113.523 C 284.656 102.562,284.850 102.912,270.441 94.338 C 265.037 91.123,251.249 82.912,239.800 76.091 C 201.361 53.191,199.150 52.062,195.122 53.279 M280.941 59.030 C 279.461 61.228,279.410 61.018,281.765 62.448 C 282.864 63.116,283.764 63.715,283.764 63.781 C 283.764 63.878,270.978 83.954,268.984 86.986 L 268.398 87.878 270.259 89.068 C 271.282 89.723,272.229 90.256,272.363 90.254 C 272.497 90.252,276.036 84.873,280.227 78.300 L 287.848 66.351 289.886 67.648 L 291.923 68.946 292.658 68.041 C 293.564 66.926,294.612 65.014,294.407 64.853 C 293.722 64.318,282.506 57.286,282.336 57.286 C 282.215 57.286,281.587 58.070,280.941 59.030 M107.854 61.778 C 106.842 62.151,101.100 65.751,100.139 66.617 C 99.930 66.804,117.014 93.015,118.203 94.332 C 118.523 94.686,125.699 89.804,126.486 88.697 C 127.842 86.789,127.997 84.471,126.945 81.847 C 126.225 80.054,115.223 63.983,114.056 63.021 C 112.068 61.383,110.037 60.976,107.854 61.778 M111.118 66.868 C 112.165 67.717,122.555 83.465,122.767 84.525 C 122.957 85.474,122.375 86.221,120.538 87.385 L 119.678 87.931 113.128 78.105 C 105.543 66.725,106.228 68.191,107.993 67.133 C 109.657 66.136,110.161 66.093,111.118 66.868 M295.393 85.629 C 280.059 98.304,281.675 96.624,283.261 98.248 C 284.933 99.961,284.958 99.957,287.743 97.554 L 290.096 95.524 292.009 97.280 C 294.291 99.376,294.286 99.170,292.126 102.197 L 290.400 104.616 291.995 106.083 C 292.871 106.890,293.707 107.557,293.853 107.564 C 294.184 107.580,312.474 79.945,312.339 79.631 C 312.161 79.218,308.090 75.604,307.802 75.604 C 307.648 75.604,302.064 80.115,295.393 85.629 M83.579 80.894 C 82.765 81.422,80.930 83.043,79.503 84.496 L 76.907 87.138 86.445 96.941 C 91.690 102.333,96.942 107.717,98.116 108.906 L 100.249 111.067 101.926 109.390 L 103.602 107.714 98.597 102.516 L 93.593 97.318 94.768 96.286 C 96.846 94.462,97.548 94.793,102.494 99.938 C 106.784 104.400,106.863 104.431,108.899 102.424 L 110.536 100.812 109.451 99.948 C 108.854 99.473,107.059 97.710,105.461 96.030 C 101.802 92.183,99.915 90.924,97.806 90.924 L 96.253 90.924 96.253 89.409 C 96.253 83.726,87.882 78.102,83.579 80.894 M303.388 85.845 C 301.903 87.998,299.840 90.995,298.804 92.506 C 296.604 95.714,296.894 95.602,295.047 93.947 C 293.753 92.788,293.645 92.585,294.088 92.146 C 294.956 91.286,305.832 81.932,305.963 81.932 C 306.032 81.932,304.874 83.693,303.388 85.845 M89.651 86.844 C 92.911 89.953,93.229 91.202,91.246 93.098 L 90.210 94.088 86.917 90.591 L 83.623 87.094 84.771 86.012 C 86.447 84.431,87.268 84.571,89.651 86.844 M322.565 93.303 C 320.638 94.871,320.649 94.589,322.426 96.865 C 323.591 98.356,323.741 98.711,323.356 99.068 C 323.104 99.302,318.326 103.131,312.739 107.577 C 307.152 112.023,302.371 115.856,302.113 116.095 C 301.589 116.582,301.837 117.083,303.633 119.165 L 304.580 120.262 315.560 111.421 C 321.600 106.559,326.650 102.581,326.783 102.581 C 326.915 102.581,327.692 103.401,328.509 104.404 L 329.994 106.227 331.691 104.875 C 332.625 104.132,333.389 103.384,333.389 103.214 C 333.389 102.851,324.690 91.918,324.416 91.935 C 324.313 91.942,323.480 92.557,322.565 93.303 M61.993 105.487 C 60.801 107.193,60.302 108.187,60.494 108.468 C 60.653 108.700,66.127 113.983,72.659 120.209 L 84.535 131.528 85.798 129.694 L 87.061 127.861 84.642 125.629 L 82.223 123.397 83.798 121.155 L 85.373 118.912 88.300 120.476 C 89.910 121.336,91.280 121.971,91.345 121.886 C 92.267 120.683,93.942 118.148,93.861 118.078 C 93.777 118.006,64.589 103.297,63.948 103.004 C 63.856 102.962,62.976 104.079,61.993 105.487 M77.102 114.580 C 79.301 115.735,81.154 116.722,81.222 116.775 C 81.290 116.828,80.788 117.630,80.107 118.558 L 78.869 120.245 77.653 119.183 C 74.975 116.845,66.944 109.449,66.944 109.321 C 66.944 109.246,68.331 109.927,70.025 110.833 C 71.719 111.740,74.904 113.426,77.102 114.580 M327.394 124.112 C 319.609 128.425,313.184 132.007,313.117 132.072 C 313.011 132.174,317.230 140.089,318.734 142.610 L 319.267 143.504 321.348 142.332 L 323.428 141.160 322.629 139.772 C 322.189 139.009,321.281 137.392,320.611 136.180 L 319.391 133.975 323.720 131.600 C 328.954 128.729,328.270 128.697,329.990 131.895 C 331.640 134.964,331.383 134.855,333.840 133.525 L 335.741 132.495 334.232 129.727 C 333.402 128.204,332.723 126.881,332.723 126.787 C 332.723 126.430,340.188 122.570,340.412 122.811 C 340.542 122.950,341.430 124.488,342.386 126.228 C 343.342 127.968,344.167 129.440,344.219 129.498 C 344.313 129.603,347.133 128.197,347.991 127.618 C 348.510 127.268,342.627 116.223,341.938 116.254 C 341.724 116.264,335.179 119.800,327.394 124.112 M49.625 127.913 C 44.737 129.977,43.984 136.991,48.317 140.097 C 50.320 141.533,66.950 149.140,69.458 149.767 C 76.600 151.553,81.223 141.902,75.285 137.601 C 74.203 136.817,63.386 131.557,62.855 131.557 C 62.674 131.557,60.484 136.061,60.144 137.134 C 59.968 137.688,60.255 137.930,61.963 138.671 C 64.417 139.735,64.117 139.749,64.613 138.551 C 65.116 137.335,64.624 137.270,68.501 139.069 C 73.304 141.298,74.131 142.366,72.582 144.335 C 71.481 145.735,70.598 145.484,60.899 141.020 C 51.345 136.622,50.291 135.982,50.291 134.571 C 50.291 132.179,52.231 131.616,55.495 133.060 C 56.536 133.520,57.418 133.858,57.454 133.809 C 57.490 133.761,57.913 132.849,58.395 131.783 L 59.269 129.843 57.028 128.822 C 54.580 127.707,51.121 127.282,49.625 127.913 M159.700 172.636 C 156.417 173.723,154.434 175.590,153.125 178.825 C 152.374 180.680,152.373 180.711,152.373 200.167 L 152.373 219.650 153.134 221.531 C 154.891 225.878,158.046 227.963,162.864 227.963 C 167.683 227.963,170.837 225.878,172.595 221.531 L 173.356 219.650 173.356 200.167 L 173.356 180.683 172.595 178.802 C 170.550 173.745,164.740 170.966,159.700 172.636 M316.213 172.773 C 312.885 173.967,310.945 176.281,309.860 180.350 C 309.216 182.767,309.217 217.571,309.862 219.983 C 311.347 225.545,314.441 228.000,319.900 227.948 C 327.432 227.877,330.372 223.472,330.386 212.240 L 330.391 207.494 327.061 207.494 L 323.730 207.494 323.728 211.907 C 323.725 219.072,322.190 221.518,318.628 220.030 C 316.350 219.078,316.369 219.253,316.475 199.759 C 316.580 180.434,316.512 181.008,318.796 180.212 C 322.148 179.043,323.725 181.404,323.728 187.594 L 323.730 191.174 327.061 191.174 L 330.391 191.174 330.386 187.261 C 330.368 175.700,324.572 169.775,316.213 172.773 M42.631 200.142 L 42.631 227.477 46.128 227.477 L 49.625 227.477 49.625 216.358 L 49.625 205.240 52.884 205.109 C 61.368 204.768,63.447 201.599,63.447 189.009 C 63.447 175.043,61.762 173.116,49.376 172.916 L 42.631 172.807 42.631 200.142 M70.941 200.167 L 70.941 227.477 80.766 227.477 L 90.591 227.477 90.591 223.654 L 90.591 219.832 84.346 219.741 L 78.102 219.650 78.013 211.241 L 77.924 202.831 82.925 202.831 L 87.927 202.831 87.927 199.010 L 87.927 195.188 83.014 195.096 L 78.102 195.004 78.102 187.843 L 78.102 180.683 84.346 180.592 L 90.591 180.502 90.591 176.679 L 90.591 172.856 80.766 172.856 L 70.941 172.856 70.941 200.167 M97.585 200.138 L 97.585 227.477 101.078 227.477 L 104.571 227.477 104.659 215.737 L 104.746 203.997 106.850 204.056 C 111.321 204.182,111.652 204.991,111.806 216.153 C 111.871 220.824,112.004 225.283,112.102 226.062 L 112.281 227.477 115.959 227.477 C 119.339 227.477,119.617 227.430,119.381 226.894 C 119.239 226.574,119.018 221.740,118.890 216.153 C 118.605 203.701,117.945 201.190,114.571 199.718 C 114.215 199.563,114.186 199.446,114.471 199.312 C 119.633 196.874,120.681 181.053,116.023 175.872 C 113.694 173.282,112.877 173.069,104.663 172.924 L 97.585 172.799 97.585 200.138 M126.894 200.167 L 126.894 227.477 130.387 227.477 L 133.880 227.477 133.967 215.570 L 134.055 203.664 138.634 203.571 L 143.214 203.478 143.214 199.658 L 143.214 195.837 138.545 195.837 L 133.876 195.837 133.965 188.260 L 134.055 180.683 139.967 180.592 L 145.878 180.501 145.878 176.678 L 145.878 172.856 136.386 172.856 L 126.894 172.856 126.894 200.167 M181.848 200.138 L 181.848 227.477 185.341 227.477 L 188.834 227.477 188.922 215.737 L 189.009 203.997 191.113 204.056 C 195.584 204.182,195.915 204.991,196.069 216.153 C 196.134 220.824,196.267 225.283,196.365 226.062 L 196.544 227.477 200.223 227.477 C 203.602 227.477,203.880 227.430,203.644 226.894 C 203.502 226.574,203.282 221.740,203.153 216.153 C 202.868 203.701,202.208 201.190,198.834 199.718 C 198.478 199.563,198.449 199.446,198.734 199.312 C 203.897 196.874,204.944 181.053,200.287 175.872 C 197.957 173.282,197.140 173.069,188.926 172.924 L 181.848 172.799 181.848 200.138 M211.490 200.167 L 211.490 227.477 214.654 227.477 L 217.818 227.477 217.852 207.577 L 217.886 187.677 220.494 207.494 C 221.928 218.393,223.112 227.348,223.125 227.394 C 223.213 227.716,229.142 227.417,229.142 227.091 C 229.142 226.207,234.192 187.678,234.326 187.545 C 234.406 187.465,234.471 196.417,234.471 207.438 L 234.471 227.477 237.802 227.477 L 241.132 227.477 241.132 200.167 L 241.132 172.856 236.152 172.856 L 231.171 172.856 230.982 173.938 C 230.774 175.132,226.478 211.049,226.478 211.594 C 226.478 213.368,225.887 208.941,223.998 193.006 C 222.782 182.748,221.716 174.017,221.628 173.605 C 221.472 172.869,221.385 172.856,216.480 172.856 L 211.490 172.856 211.490 200.167 M254.788 173.298 C 254.788 173.795,247.926 224.600,247.617 226.395 L 247.430 227.477 250.776 227.477 C 253.219 227.477,254.127 227.365,254.142 227.061 C 254.154 226.832,254.419 224.471,254.732 221.815 L 255.301 216.986 259.482 216.893 L 263.663 216.800 264.239 222.046 C 264.925 228.284,264.317 227.520,268.498 227.406 L 271.972 227.311 268.290 200.167 L 264.608 173.022 259.698 172.930 C 255.697 172.855,254.788 172.923,254.788 173.298 M278.768 200.167 L 278.768 227.477 281.932 227.477 L 285.096 227.477 285.124 207.744 C 285.140 196.890,285.266 188.385,285.403 188.843 C 285.541 189.301,287.514 198.180,289.787 208.574 L 293.922 227.474 297.502 227.475 L 301.082 227.477 301.082 200.167 L 301.082 172.856 297.922 172.856 L 294.761 172.856 294.674 188.855 L 294.588 204.855 291.093 188.855 L 287.599 172.856 283.183 172.856 L 278.768 172.856 278.768 200.167 M338.052 200.167 L 338.052 227.477 347.877 227.477 L 357.702 227.477 357.702 223.654 L 357.702 219.832 351.457 219.741 L 345.212 219.650 345.123 211.241 L 345.034 202.831 350.036 202.831 L 355.037 202.831 355.037 199.010 L 355.037 195.188 350.125 195.096 L 345.212 195.004 345.212 187.843 L 345.212 180.683 351.457 180.592 L 357.702 180.502 357.702 176.679 L 357.702 172.856 347.877 172.856 L 338.052 172.856 338.052 200.167 M163.973 180.208 C 166.514 180.913,166.513 180.910,166.513 200.167 C 166.513 215.917,166.473 217.073,165.887 218.365 C 165.097 220.104,163.542 220.758,161.666 220.139 C 159.224 219.333,159.216 219.271,159.208 200.257 C 159.200 181.580,159.236 181.238,161.333 180.325 C 162.600 179.774,162.436 179.781,163.973 180.208 M55.167 181.221 C 56.344 182.196,56.619 183.676,56.619 189.009 C 56.619 196.445,56.172 197.282,52.179 197.316 L 49.792 197.336 49.702 189.349 C 49.653 184.956,49.694 181.152,49.792 180.895 C 50.026 180.286,54.357 180.548,55.167 181.221 M109.432 181.004 C 111.213 181.748,111.574 182.987,111.574 188.365 C 111.574 194.949,110.795 196.170,106.594 196.170 L 104.580 196.170 104.580 188.565 C 104.580 184.382,104.679 180.860,104.802 180.738 C 105.206 180.334,108.245 180.508,109.432 181.004 M193.695 181.004 C 195.476 181.748,195.837 182.987,195.837 188.365 C 195.837 194.949,195.058 196.170,190.858 196.170 L 188.843 196.170 188.843 188.565 C 188.843 184.382,188.943 180.860,189.065 180.738 C 189.469 180.334,192.508 180.508,193.695 181.004 M261.174 196.253 C 262.018 203.443,262.669 209.369,262.621 209.421 C 262.573 209.474,261.126 209.474,259.406 209.421 L 256.277 209.326 257.773 196.253 C 258.595 189.063,259.352 183.181,259.454 183.181 C 259.556 183.181,260.330 189.063,261.174 196.253 M151.122 240.050 C 150.651 240.920,150.038 242.508,149.761 243.578 C 148.849 247.095,146.342 248.516,137.929 250.285 C 128.214 252.328,121.087 257.392,116.403 265.579 C 115.487 267.180,113.324 270.840,111.596 273.712 C 105.261 284.244,104.951 285.801,108.261 290.450 C 109.439 292.104,109.612 293.295,109.054 295.893 C 106.777 306.477,107.183 308.540,111.740 309.550 C 112.886 309.804,115.662 312.387,121.155 318.310 C 123.613 320.962,125.795 322.951,127.483 324.080 C 129.573 325.478,130.204 326.107,130.830 327.424 C 131.991 329.864,133.251 330.646,136.955 331.223 C 139.654 331.644,145.321 337.539,146.536 341.189 C 148.022 345.655,151.943 347.378,155.800 345.260 C 156.663 344.786,158.131 344.000,159.063 343.513 L 160.758 342.629 162.948 343.674 C 164.153 344.249,166.820 345.119,168.876 345.608 C 175.465 347.175,175.512 347.333,171.909 355.758 C 165.456 370.843,164.754 376.339,168.899 379.341 C 174.284 383.242,188.272 376.325,193.066 367.389 C 193.910 365.816,195.631 362.915,196.891 360.943 C 199.428 356.971,199.999 355.840,201.544 351.719 C 204.230 344.557,215.000 331.618,221.946 327.207 C 232.873 320.269,238.958 313.520,243.100 303.747 C 243.527 302.739,245.928 298.768,248.435 294.921 C 259.207 278.394,262.314 271.663,264.279 260.596 C 265.326 254.703,267.444 240.216,267.444 238.950 C 267.444 237.764,263.498 238.336,263.304 239.550 C 263.208 240.146,262.597 244.431,261.947 249.074 C 259.095 269.416,257.181 274.255,244.346 293.589 C 242.522 296.336,240.384 299.956,239.595 301.633 C 234.995 311.408,230.676 316.457,221.982 322.226 C 211.146 329.415,201.109 341.150,197.519 350.829 C 196.697 353.045,195.373 355.656,193.916 357.932 C 192.649 359.912,190.897 362.852,190.024 364.465 C 186.787 370.442,179.358 375.818,173.714 376.267 C 168.611 376.674,169.201 372.390,176.661 354.871 C 180.104 346.787,178.723 343.864,170.525 341.881 C 168.601 341.416,165.855 340.495,164.422 339.833 C 161.013 338.260,159.566 338.383,155.850 340.561 C 152.890 342.296,151.654 342.421,150.994 341.049 C 150.774 340.591,150.116 339.193,149.534 337.941 C 147.427 333.417,141.168 327.812,137.552 327.211 C 136.911 327.104,136.068 326.954,135.679 326.877 C 135.262 326.794,134.794 326.291,134.539 325.650 C 133.752 323.678,132.867 322.739,130.036 320.875 C 127.881 319.456,126.233 317.922,122.862 314.198 C 117.820 308.630,115.113 306.250,113.250 305.748 C 111.267 305.214,111.243 304.472,112.973 297.087 C 113.948 292.925,113.692 291.645,110.904 286.766 C 109.765 284.772,109.999 284.071,113.801 278.102 C 114.909 276.361,116.902 272.989,118.230 270.608 C 123.582 261.014,129.594 256.075,137.885 254.458 C 147.902 252.505,152.220 250.103,153.397 245.828 C 154.207 242.883,154.935 241.406,156.327 239.883 L 157.620 238.468 154.800 238.468 L 151.979 238.468 151.122 240.050 " stroke="none" fill="#fafafa" fill-rule="evenodd"></path><path id="path2" d="M189.753 10.337 C 88.755 15.529,9.670 98.673,9.665 199.667 C 9.659 312.744,108.246 400.741,220.647 387.989 C 326.943 375.929,402.296 278.068,386.811 172.190 C 372.690 75.644,287.086 5.332,189.753 10.337 M210.991 14.667 C 326.839 22.430,407.058 132.373,378.981 244.901 C 358.126 328.483,281.465 386.877,195.171 384.910 C 82.903 382.351,-1.220 281.681,16.159 170.686 C 30.895 76.570,116.137 8.310,210.991 14.667 M186.345 30.990 C 68.097 40.495,-4.205 163.844,45.256 271.692 C 67.726 320.689,111.462 354.957,166.715 366.861 C 167.310 366.989,167.505 366.688,168.171 364.603 C 168.593 363.281,170.109 359.473,171.539 356.142 C 175.334 347.302,175.347 347.356,169.049 345.891 C 166.996 345.413,164.376 344.578,163.228 344.035 C 160.535 342.762,160.484 342.767,157.393 344.606 C 152.390 347.584,148.034 346.461,146.528 341.807 C 145.761 339.435,144.849 338.022,142.470 335.517 C 139.339 332.221,138.764 331.846,135.931 331.256 C 132.949 330.634,131.831 329.853,130.744 327.631 C 130.031 326.173,129.457 325.599,127.249 324.139 C 125.495 322.979,123.571 321.247,121.519 318.981 C 116.793 313.762,112.953 310.098,111.966 309.866 C 107.239 308.754,106.533 306.087,108.603 297.156 C 109.590 292.895,109.680 293.150,105.702 288.976 C 94.067 276.772,84.481 261.463,78.456 245.462 C 76.695 240.788,74.266 232.771,74.494 232.390 C 74.749 231.965,324.063 232.081,324.063 232.507 C 324.063 233.850,320.522 244.481,318.260 249.929 C 302.081 288.895,265.849 318.693,225.048 326.591 C 218.418 327.874,205.096 342.360,201.565 352.126 C 200.247 355.772,199.555 357.144,197.243 360.699 C 194.859 364.365,192.114 369.411,192.367 369.662 C 193.210 370.500,214.982 369.463,223.813 368.165 C 337.987 351.382,402.681 227.292,351.015 124.180 C 320.320 62.920,254.252 25.531,186.345 30.990 M171.847 53.222 C 173.900 62.070,175.507 69.496,175.420 69.724 C 175.274 70.103,170.965 71.179,170.718 70.897 C 170.658 70.830,168.259 66.203,165.385 60.616 C 162.512 55.029,160.239 50.758,160.336 51.124 C 161.376 55.069,165.166 72.052,165.048 72.243 C 164.795 72.652,161.151 73.360,160.872 73.054 C 160.595 72.750,153.447 42.225,153.401 41.143 C 153.377 40.601,153.777 40.389,155.704 39.921 C 159.564 38.984,158.904 38.349,163.356 47.279 C 165.544 51.667,167.378 55.215,167.430 55.162 C 167.483 55.110,166.714 51.557,165.723 47.267 C 164.731 42.977,163.870 39.167,163.808 38.801 C 163.717 38.255,167.646 36.681,168.071 37.093 C 168.096 37.116,169.795 44.375,171.847 53.222 M139.231 47.825 C 139.773 49.032,140.216 50.062,140.216 50.112 C 140.216 50.162,138.568 50.924,136.553 51.805 C 134.538 52.686,132.889 53.524,132.889 53.669 C 132.889 53.813,133.604 55.571,134.478 57.577 L 136.067 61.223 139.058 59.939 L 142.048 58.655 142.939 60.551 C 144.238 63.319,144.230 63.339,141.189 64.624 C 139.709 65.250,138.437 65.860,138.362 65.981 C 138.252 66.159,141.716 74.493,142.061 74.882 C 142.115 74.943,143.737 74.306,145.666 73.467 C 147.594 72.627,149.307 71.940,149.473 71.940 C 150.042 71.940,151.688 76.306,151.227 76.591 C 150.253 77.193,139.540 81.699,139.405 81.564 C 139.323 81.482,136.263 74.548,132.604 66.155 L 125.952 50.895 127.839 50.030 C 131.375 48.409,137.718 45.670,137.982 45.649 C 138.127 45.638,138.689 46.617,139.231 47.825 M263.679 47.242 C 266.305 48.582,267.724 51.289,267.260 54.076 C 267.027 55.481,265.841 58.951,265.595 58.951 C 265.520 58.951,264.499 58.557,263.326 58.075 L 261.193 57.199 261.888 55.289 C 262.799 52.788,262.208 51.518,260.213 51.688 C 257.565 51.914,256.686 55.581,258.273 59.784 C 258.757 61.066,259.452 62.939,259.817 63.947 C 263.294 73.538,255.922 82.947,248.518 78.370 C 244.959 76.169,244.280 72.655,246.460 67.708 L 247.077 66.306 249.184 67.192 C 250.343 67.679,251.348 68.118,251.419 68.167 C 251.490 68.216,251.228 69.000,250.836 69.910 C 249.678 72.604,250.277 74.271,252.405 74.271 C 255.581 74.271,256.207 69.872,253.887 63.850 C 249.583 52.681,255.308 42.972,263.679 47.242 M203.196 54.691 C 207.838 57.016,217.581 62.626,233.552 72.170 C 242.936 77.778,249.354 81.381,252.383 82.743 C 286.671 98.157,313.202 128.958,323.335 165.112 L 324.012 167.527 199.282 167.527 L 74.552 167.527 74.778 166.445 C 74.903 165.849,75.871 162.739,76.929 159.534 C 91.279 116.053,128.263 83.148,173.119 73.954 C 175.816 73.401,177.765 72.836,177.909 72.564 C 178.043 72.313,178.754 70.786,179.489 69.172 C 182.658 62.212,187.349 56.937,193.038 53.935 C 196.056 52.343,198.934 52.557,203.196 54.691 M288.693 60.949 C 292.012 63.056,294.734 64.869,294.741 64.978 C 294.748 65.086,294.158 66.098,293.429 67.226 L 292.104 69.276 290.299 68.121 C 289.306 67.486,288.340 66.924,288.154 66.872 C 287.967 66.820,284.415 72.098,280.260 78.601 C 276.105 85.104,272.655 90.477,272.594 90.542 C 272.395 90.751,268.443 88.175,268.443 87.835 C 268.443 87.654,271.756 82.327,275.804 75.997 C 279.853 69.667,283.235 64.308,283.320 64.088 C 283.405 63.866,282.576 63.143,281.454 62.461 C 279.595 61.332,279.466 61.178,279.817 60.509 C 280.588 59.042,282.163 56.919,282.406 57.018 C 282.544 57.073,285.373 58.843,288.693 60.949 M193.985 58.470 C 189.765 60.997,186.071 65.512,183.316 71.509 C 182.492 73.303,181.637 75.140,181.417 75.592 C 181.196 76.044,179.808 78.067,178.331 80.088 C 176.854 82.110,173.727 86.386,171.382 89.592 C 166.073 96.850,164.054 98.943,159.117 102.305 C 156.965 103.771,155.204 105.053,155.204 105.153 C 155.204 105.254,156.778 108.371,158.701 112.081 C 163.096 120.557,163.225 121.851,159.845 123.575 C 158.632 124.193,158.534 124.349,158.533 125.652 C 158.528 129.315,156.521 132.058,153.121 133.046 C 149.957 133.966,149.617 134.789,148.709 143.714 C 148.232 148.400,148.240 149.024,148.830 153.788 C 149.606 160.044,149.474 159.865,153.330 159.874 C 155.635 159.880,156.720 160.041,157.822 160.540 C 159.244 161.186,160.146 161.199,202.720 161.199 L 246.166 161.199 246.839 159.676 C 247.210 158.839,247.858 156.966,248.280 155.514 C 249.549 151.149,250.682 150.076,254.425 149.691 C 259.185 149.203,260.746 147.900,264.824 141.013 C 269.406 133.276,278.768 109.600,278.768 105.749 C 278.768 104.243,278.533 104.077,266.112 96.744 C 259.975 93.121,246.261 84.959,235.637 78.605 C 198.481 56.386,197.920 56.115,193.985 58.470 M113.657 62.477 C 115.002 63.415,125.009 77.660,126.955 81.408 C 128.039 83.496,128.117 86.119,127.148 87.927 C 126.379 89.359,119.503 94.605,118.427 94.579 C 118.158 94.573,104.692 74.695,100.164 67.621 L 99.578 66.706 103.161 64.343 C 108.535 60.798,110.697 60.414,113.657 62.477 M107.975 67.327 C 107.367 67.716,106.948 68.224,107.038 68.461 C 107.212 68.914,119.125 86.886,119.582 87.385 C 120.167 88.023,122.551 85.868,122.559 84.693 C 122.566 83.803,111.546 67.133,110.749 66.827 C 109.810 66.466,109.127 66.589,107.975 67.327 M310.418 77.446 C 311.669 78.539,312.704 79.520,312.716 79.626 C 312.755 79.945,294.136 107.910,293.885 107.910 C 293.757 107.910,292.875 107.174,291.925 106.275 L 290.196 104.641 291.976 102.051 C 294.129 98.918,294.134 99.372,291.920 97.461 L 290.086 95.876 289.133 96.648 C 288.609 97.072,287.482 98.002,286.629 98.715 L 285.078 100.011 283.505 98.678 C 282.640 97.944,281.932 97.163,281.932 96.942 C 281.932 96.470,307.443 75.249,307.860 75.374 C 308.015 75.421,309.166 76.353,310.418 77.446 M89.135 80.096 C 92.215 81.383,96.586 86.820,96.586 89.364 C 96.586 90.547,96.629 90.591,97.765 90.591 C 99.689 90.591,101.313 91.695,105.130 95.598 C 107.117 97.630,109.244 99.604,109.858 99.985 L 110.972 100.677 109.133 102.517 C 106.896 104.754,107.280 104.917,101.847 99.438 C 97.506 95.060,96.585 94.676,94.829 96.508 L 93.947 97.429 98.907 102.616 L 103.867 107.803 101.967 109.476 L 100.066 111.148 88.333 99.121 L 76.600 87.094 79.704 84.053 C 84.137 79.710,86.169 78.857,89.135 80.096 M299.917 87.289 C 297.169 89.671,294.703 91.837,294.436 92.102 C 293.934 92.601,295.701 94.932,296.568 94.913 C 296.838 94.908,303.411 85.742,304.846 83.371 C 305.282 82.650,305.118 82.781,299.917 87.289 M84.753 86.271 L 83.787 87.280 87.038 90.518 L 90.289 93.755 91.273 92.668 C 92.784 90.997,92.593 90.209,90.037 87.561 C 87.406 84.837,86.370 84.584,84.753 86.271 M329.012 97.101 C 334.398 103.832,334.162 103.177,331.853 105.009 L 329.946 106.522 328.390 104.575 L 326.833 102.628 315.655 111.575 L 304.476 120.522 302.886 118.497 C 301.329 116.515,301.309 116.462,301.956 115.938 C 302.319 115.644,307.292 111.666,313.007 107.098 C 318.721 102.530,323.397 98.690,323.397 98.565 C 323.397 98.440,322.798 97.586,322.065 96.665 C 321.332 95.745,320.741 94.864,320.752 94.707 C 320.771 94.424,324.059 91.643,324.416 91.608 C 324.518 91.599,326.586 94.070,329.012 97.101 M79.274 110.516 L 94.243 118.117 92.732 120.195 L 91.220 122.272 88.366 120.728 C 86.796 119.880,85.406 119.308,85.278 119.459 C 85.150 119.610,84.464 120.545,83.753 121.536 L 82.461 123.339 84.885 125.610 L 87.309 127.881 86.036 129.715 C 85.336 130.724,84.667 131.551,84.551 131.553 C 84.434 131.555,78.964 126.442,72.394 120.191 C 65.825 113.940,60.312 108.699,60.144 108.545 C 59.719 108.156,63.319 102.914,64.011 102.914 C 64.173 102.914,71.041 106.335,79.274 110.516 M68.776 110.819 C 73.025 115.110,78.705 119.895,79.131 119.542 C 79.682 119.085,81.060 116.909,80.887 116.769 C 80.821 116.715,78.368 115.429,75.437 113.910 C 72.506 112.392,69.584 110.848,68.943 110.480 L 67.777 109.810 68.776 110.819 M345.139 120.983 C 346.687 123.776,348.124 126.389,348.331 126.789 C 348.656 127.414,344.648 130.331,344.190 129.803 C 344.153 129.760,343.267 128.189,342.222 126.311 C 341.177 124.434,340.236 122.898,340.132 122.898 C 339.692 122.898,333.056 126.691,333.056 126.943 C 333.056 127.094,333.717 128.414,334.525 129.875 L 335.995 132.532 333.827 133.744 C 331.354 135.127,331.557 135.224,329.714 131.793 C 328.381 129.312,328.288 129.217,327.607 129.659 C 327.215 129.913,325.470 130.893,323.730 131.836 C 321.990 132.779,320.368 133.680,320.125 133.838 C 319.783 134.061,320.101 134.872,321.540 137.449 C 322.562 139.278,323.397 140.927,323.397 141.115 C 323.397 141.658,319.387 143.667,319.025 143.304 C 318.526 142.806,312.700 132.151,312.846 132.005 C 313.097 131.755,341.883 115.920,342.103 115.912 C 342.224 115.907,343.590 118.189,345.139 120.983 M56.934 128.597 C 59.636 129.805,59.543 129.582,58.420 132.173 L 57.556 134.165 55.274 133.194 C 52.104 131.845,50.291 132.344,50.291 134.564 C 50.291 136.226,69.873 145.729,71.784 144.996 C 72.664 144.658,73.272 142.912,72.840 141.964 C 72.275 140.724,65.577 137.616,65.117 138.381 C 64.119 140.040,64.211 140.026,61.927 138.881 C 60.748 138.290,59.744 137.772,59.696 137.730 C 59.648 137.688,60.281 136.204,61.104 134.432 L 62.600 131.209 63.690 131.679 C 78.423 138.040,81.179 141.521,76.422 147.759 C 73.462 151.639,71.450 151.343,57.757 145.015 C 46.584 139.852,45.248 138.753,45.248 134.727 C 45.248 128.525,50.551 125.743,56.934 128.597 M166.929 172.708 C 173.127 174.819,173.844 177.666,173.844 200.167 C 173.844 222.667,173.127 225.514,166.929 227.626 C 160.090 229.956,153.876 226.380,152.364 219.244 C 151.666 215.954,151.666 184.380,152.364 181.089 C 153.875 173.958,160.095 170.379,166.929 172.708 M323.909 172.745 C 328.380 174.269,330.117 177.840,330.319 185.928 L 330.459 191.507 326.928 191.507 L 323.397 191.507 323.397 187.311 C 323.397 181.712,322.639 180.183,319.863 180.183 C 316.592 180.183,316.570 180.323,316.570 200.167 C 316.570 220.042,316.588 220.150,319.895 220.150 C 322.723 220.150,323.161 219.208,323.383 212.656 L 323.564 207.327 327.008 207.232 L 330.453 207.137 330.320 213.560 C 330.163 221.177,329.705 222.866,327.085 225.487 C 323.269 229.302,315.882 229.144,312.300 225.171 C 309.243 221.781,309.076 220.481,309.076 200.167 C 309.076 179.852,309.243 178.552,312.300 175.162 C 314.850 172.333,319.723 171.319,323.909 172.745 M57.180 173.298 C 62.146 175.128,63.935 179.291,63.935 189.009 C 63.935 200.885,61.346 204.830,53.372 205.105 L 49.958 205.223 49.958 216.350 L 49.958 227.477 46.295 227.477 L 42.631 227.477 42.631 200.167 L 42.631 172.856 49.376 172.881 C 53.651 172.897,56.508 173.050,57.180 173.298 M90.591 176.853 L 90.591 180.849 84.430 180.849 L 78.268 180.849 78.268 187.843 L 78.268 194.838 83.097 194.838 L 87.927 194.838 87.927 198.834 L 87.927 202.831 83.097 202.831 L 78.268 202.831 78.268 211.157 L 78.268 219.484 84.430 219.484 L 90.591 219.484 90.591 223.647 L 90.591 227.810 80.766 227.810 L 70.941 227.810 70.941 200.333 L 70.941 172.856 80.766 172.856 L 90.591 172.856 90.591 176.853 M113.786 173.760 C 117.737 175.873,118.734 178.545,118.734 187.011 C 118.734 194.290,118.429 195.585,116.120 198.090 L 114.775 199.549 115.848 200.389 C 118.369 202.362,118.843 204.733,119.032 216.320 C 119.113 221.266,119.331 225.799,119.516 226.395 L 119.854 227.477 116.066 227.477 C 113.402 227.477,112.200 227.354,112.011 227.061 C 111.864 226.832,111.667 222.223,111.575 216.819 C 111.366 204.575,111.202 204.163,106.528 204.163 L 104.913 204.163 104.913 215.820 L 104.913 227.477 101.249 227.477 L 97.585 227.477 97.585 200.144 L 97.585 172.810 104.996 172.916 C 111.898 173.015,112.501 173.073,113.786 173.760 M145.878 176.853 L 145.878 180.849 140.050 180.849 L 134.221 180.849 134.221 188.343 L 134.221 195.837 138.884 195.837 L 143.547 195.837 143.547 199.833 L 143.547 203.830 138.884 203.830 L 134.221 203.830 134.221 215.654 L 134.221 227.477 130.558 227.477 L 126.894 227.477 126.894 200.167 L 126.894 172.856 136.386 172.856 L 145.878 172.856 145.878 176.853 M198.049 173.760 C 202.000 175.873,202.998 178.545,202.998 187.011 C 202.998 194.290,202.692 195.585,200.383 198.090 L 199.038 199.549 200.111 200.389 C 202.632 202.362,203.106 204.733,203.295 216.320 C 203.376 221.266,203.594 225.799,203.780 226.395 L 204.117 227.477 200.329 227.477 C 197.665 227.477,196.463 227.354,196.274 227.061 C 196.127 226.832,195.931 222.223,195.838 216.819 C 195.629 204.575,195.465 204.163,190.791 204.163 L 189.176 204.163 189.176 215.820 L 189.176 227.477 185.512 227.477 L 181.848 227.477 181.848 200.144 L 181.848 172.810 189.259 172.916 C 196.161 173.015,196.764 173.073,198.049 173.760 M222.073 175.604 C 222.263 177.115,223.294 185.690,224.363 194.660 C 225.432 203.630,226.343 210.749,226.387 210.480 C 226.539 209.567,230.808 173.577,230.808 173.215 C 230.808 172.974,232.498 172.856,235.970 172.856 L 241.132 172.856 241.132 200.167 L 241.132 227.477 237.638 227.477 L 234.144 227.477 234.058 209.076 L 233.972 190.674 231.698 208.493 C 230.447 218.293,229.350 226.574,229.261 226.894 C 229.120 227.396,228.666 227.477,226.002 227.477 L 222.907 227.477 222.387 223.564 C 222.100 221.411,220.993 212.845,219.926 204.528 L 217.985 189.405 217.899 208.441 L 217.813 227.477 214.652 227.477 L 211.490 227.477 211.490 200.167 L 211.490 172.856 216.608 172.856 L 221.726 172.856 222.073 175.604 M264.923 174.105 C 265.219 175.934,272.107 226.819,272.107 227.175 C 272.107 227.952,264.800 227.514,264.631 226.728 C 264.491 226.081,263.447 217.499,263.447 217.000 C 263.447 216.900,261.669 216.819,259.496 216.819 L 255.544 216.819 255.357 218.235 C 255.254 219.013,254.980 221.411,254.747 223.564 L 254.325 227.477 250.893 227.477 C 247.847 227.477,247.460 227.411,247.458 226.894 C 247.456 226.210,254.392 174.708,254.635 173.605 C 254.797 172.869,254.888 172.856,259.761 172.856 L 264.721 172.856 264.923 174.105 M287.845 173.272 C 287.930 173.501,289.483 180.493,291.294 188.811 L 294.588 203.932 294.674 188.394 L 294.761 172.856 298.088 172.856 L 301.415 172.856 301.415 200.167 L 301.415 227.477 297.621 227.477 C 294.886 227.477,293.786 227.361,293.680 227.061 C 293.599 226.832,291.747 218.482,289.564 208.505 L 285.595 190.366 285.509 208.922 L 285.423 227.477 282.095 227.477 L 278.768 227.477 278.768 200.167 L 278.768 172.856 283.228 172.856 C 286.492 172.856,287.731 172.968,287.845 173.272 M357.702 176.853 L 357.702 180.849 351.540 180.849 L 345.379 180.849 345.379 187.843 L 345.379 194.838 350.208 194.838 L 355.037 194.838 355.037 198.834 L 355.037 202.831 350.208 202.831 L 345.379 202.831 345.379 211.157 L 345.379 219.484 351.540 219.484 L 357.702 219.484 357.702 223.647 L 357.702 227.810 347.877 227.810 L 338.052 227.810 338.052 200.333 L 338.052 172.856 347.877 172.856 L 357.702 172.856 357.702 176.853 M161.300 180.520 C 159.383 181.292,159.367 181.455,159.367 200.167 C 159.367 219.439,159.342 219.236,161.796 219.940 C 163.401 220.400,164.878 219.844,165.682 218.476 C 166.676 216.783,166.750 183.725,165.763 181.917 C 164.908 180.353,163.112 179.791,161.300 180.520 M49.958 189.009 L 49.958 197.169 52.105 197.169 C 55.798 197.169,56.647 195.595,56.593 188.843 C 56.540 182.086,55.845 180.849,52.105 180.849 L 49.958 180.849 49.958 189.009 M104.913 188.557 L 104.913 196.265 106.926 196.054 C 110.594 195.671,111.296 194.707,111.510 189.761 C 111.822 182.572,110.970 180.849,107.103 180.849 L 104.913 180.849 104.913 188.557 M189.176 188.557 L 189.176 196.265 191.189 196.054 C 194.857 195.671,195.559 194.707,195.774 189.761 C 196.085 182.572,195.233 180.849,191.366 180.849 L 189.176 180.849 189.176 188.557 M258.004 195.920 C 257.315 202.011,256.668 207.481,256.565 208.077 L 256.379 209.159 259.456 209.159 L 262.533 209.159 262.347 207.910 C 262.245 207.223,261.595 201.753,260.902 195.754 C 260.209 189.754,259.555 184.846,259.449 184.846 C 259.342 184.846,258.692 189.829,258.004 195.920 M156.437 239.965 C 155.186 241.253,154.502 242.650,153.679 245.594 C 152.399 250.172,147.756 252.863,138.102 254.618 C 129.518 256.180,123.912 260.842,118.074 271.274 C 116.638 273.838,114.422 277.565,113.149 279.555 C 110.215 284.142,110.047 285.050,111.648 287.682 C 113.811 291.237,114.055 293.345,112.882 298.322 C 112.502 299.932,112.165 302.132,112.132 303.210 L 112.073 305.172 113.353 305.542 C 115.028 306.026,118.500 309.049,122.382 313.405 C 126.542 318.074,127.451 318.916,130.648 321.066 C 132.975 322.631,133.507 323.171,134.301 324.776 C 135.194 326.580,135.291 326.662,136.807 326.881 C 141.985 327.629,148.236 333.681,150.844 340.471 C 151.499 342.176,152.591 342.316,154.782 340.975 C 159.413 338.142,161.044 337.922,164.454 339.665 C 165.604 340.253,168.126 341.108,170.060 341.565 C 179.598 343.818,180.542 346.404,175.838 357.400 C 168.354 374.896,168.755 378.717,177.685 375.000 C 182.684 372.918,187.447 368.937,189.384 365.219 C 190.059 363.924,191.512 361.440,192.613 359.700 C 195.541 355.071,196.339 353.536,197.521 350.266 C 200.737 341.364,211.334 329.081,221.740 322.196 C 230.208 316.592,235.970 309.880,239.258 301.790 C 239.696 300.712,242.150 296.627,244.712 292.713 C 253.101 279.895,257.297 271.863,258.937 265.484 C 259.859 261.898,263.114 241.360,263.114 239.128 C 263.114 238.915,244.627 238.801,210.341 238.801 L 157.567 238.801 156.437 239.965 " stroke="none" fill="#040404" fill-rule="evenodd"></path><path id="path3" d="M195.754 14.570 C 197.631 14.629,200.704 14.629,202.581 14.570 C 204.459 14.510,202.923 14.462,199.167 14.462 C 195.412 14.462,193.876 14.510,195.754 14.570 M186.761 14.890 C 187.173 14.969,187.848 14.969,188.260 14.890 C 188.672 14.810,188.335 14.745,187.510 14.745 C 186.686 14.745,186.349 14.810,186.761 14.890 M210.412 14.890 C 210.826 14.970,211.426 14.967,211.744 14.883 C 212.063 14.800,211.724 14.735,210.991 14.738 C 210.258 14.742,209.998 14.810,210.412 14.890 M214.904 15.217 C 215.225 15.301,215.749 15.301,216.070 15.217 C 216.391 15.133,216.128 15.065,215.487 15.065 C 214.846 15.065,214.584 15.133,214.904 15.217 M192.923 30.553 C 193.793 30.621,195.216 30.621,196.087 30.553 C 196.957 30.484,196.245 30.428,194.505 30.428 C 192.764 30.428,192.052 30.484,192.923 30.553 M202.591 30.553 C 203.467 30.622,204.816 30.621,205.589 30.551 C 206.362 30.482,205.645 30.425,203.997 30.426 C 202.348 30.427,201.716 30.484,202.591 30.553 M186.595 30.871 C 186.915 30.954,187.440 30.954,187.760 30.871 C 188.081 30.787,187.818 30.718,187.177 30.718 C 186.536 30.718,186.274 30.787,186.595 30.871 M210.745 30.877 C 211.159 30.956,211.759 30.953,212.077 30.870 C 212.396 30.787,212.057 30.721,211.324 30.725 C 210.591 30.729,210.331 30.797,210.745 30.877 M186.500 58.868 L 184.679 60.783 186.595 58.962 C 187.648 57.961,188.510 57.099,188.510 57.047 C 188.510 56.800,188.191 57.088,186.500 58.868 M327.893 66.611 C 328.609 67.344,329.269 67.943,329.361 67.943 C 329.452 67.943,328.942 67.344,328.226 66.611 C 327.511 65.878,326.851 65.279,326.759 65.279 C 326.667 65.279,327.178 65.878,327.893 66.611 M332.223 70.941 C 332.939 71.674,333.599 72.273,333.691 72.273 C 333.782 72.273,333.272 71.674,332.556 70.941 C 331.841 70.208,331.180 69.609,331.089 69.609 C 330.997 69.609,331.508 70.208,332.223 70.941 M86.182 79.836 C 86.596 79.916,87.196 79.913,87.514 79.829 C 87.833 79.746,87.494 79.681,86.761 79.684 C 86.028 79.688,85.768 79.756,86.182 79.836 M92.590 83.097 C 93.584 84.105,94.473 84.929,94.565 84.929 C 94.657 84.929,93.918 84.105,92.923 83.097 C 91.928 82.090,91.039 81.266,90.947 81.266 C 90.855 81.266,91.595 82.090,92.590 83.097 M321.399 82.369 C 321.399 82.426,321.886 82.913,322.481 83.451 L 323.564 84.430 322.585 83.347 C 321.674 82.338,321.399 82.112,321.399 82.369 M78.268 85.429 C 77.459 86.253,76.872 86.928,76.964 86.928 C 77.055 86.928,77.792 86.253,78.601 85.429 C 79.410 84.604,79.997 83.930,79.906 83.930 C 79.814 83.930,79.077 84.604,78.268 85.429 M84.409 86.345 L 83.430 87.427 84.513 86.449 C 85.108 85.911,85.595 85.424,85.595 85.366 C 85.595 85.109,85.321 85.336,84.409 86.345 M78.435 88.926 C 79.337 89.842,80.150 90.591,80.241 90.591 C 80.333 90.591,79.670 89.842,78.768 88.926 C 77.866 88.010,77.053 87.261,76.961 87.261 C 76.869 87.261,77.533 88.010,78.435 88.926 M96.337 89.425 C 96.341 90.158,96.409 90.419,96.489 90.004 C 96.568 89.590,96.565 88.991,96.482 88.672 C 96.399 88.354,96.333 88.693,96.337 89.425 M97.336 90.821 C 97.656 90.905,98.181 90.905,98.501 90.821 C 98.822 90.737,98.560 90.668,97.918 90.668 C 97.277 90.668,97.015 90.737,97.336 90.821 M88.675 92.422 L 90.256 94.077 91.340 92.925 L 92.423 91.772 91.337 92.746 L 90.251 93.720 88.672 92.244 L 87.094 90.767 88.675 92.422 M94.456 96.550 C 93.751 97.286,93.638 97.572,93.978 97.769 C 94.222 97.910,94.307 97.899,94.167 97.745 C 94.027 97.591,94.317 97.042,94.812 96.526 C 95.307 96.010,95.637 95.587,95.545 95.587 C 95.454 95.587,94.964 96.020,94.456 96.550 M289.560 95.972 C 289.409 96.217,289.469 96.265,289.728 96.105 C 289.956 95.964,290.452 96.124,290.862 96.470 L 291.590 97.086 290.956 96.336 C 290.244 95.496,289.908 95.408,289.560 95.972 M90.425 101.249 C 92.250 103.081,93.818 104.580,93.909 104.580 C 94.001 104.580,92.583 103.081,90.758 101.249 C 88.933 99.417,87.365 97.918,87.273 97.918 C 87.182 97.918,88.600 99.417,90.425 101.249 M108.855 102.421 C 107.818 103.425,107.074 104.246,107.201 104.246 C 107.329 104.246,108.247 103.422,109.242 102.415 C 111.581 100.046,111.304 100.051,108.855 102.421 M102.082 106.245 C 102.797 106.978,103.457 107.577,103.549 107.577 C 103.641 107.577,103.130 106.978,102.415 106.245 C 101.699 105.512,101.039 104.913,100.947 104.913 C 100.856 104.913,101.366 105.512,102.082 106.245 M290.258 109.242 C 291.346 110.341,292.311 111.241,292.402 111.241 C 292.494 111.241,291.679 110.341,290.591 109.242 C 289.504 108.143,288.539 107.244,288.447 107.244 C 288.356 107.244,289.171 108.143,290.258 109.242 M67.637 109.767 C 67.622 109.964,68.021 110.489,68.524 110.933 C 69.189 111.521,69.280 111.552,68.856 111.047 C 68.537 110.666,68.388 110.230,68.526 110.078 C 68.663 109.926,68.601 109.902,68.388 110.024 C 68.175 110.146,67.924 110.057,67.832 109.827 C 67.739 109.597,67.651 109.570,67.637 109.767 M64.779 112.906 C 65.681 113.822,66.495 114.571,66.586 114.571 C 66.678 114.571,66.015 113.822,65.112 112.906 C 64.210 111.990,63.397 111.241,63.306 111.241 C 63.214 111.241,63.877 111.990,64.779 112.906 M71.274 113.343 C 71.274 113.401,71.761 113.888,72.356 114.426 L 73.439 115.404 72.461 114.321 C 71.549 113.312,71.274 113.086,71.274 113.343 M71.774 119.567 C 72.676 120.483,73.489 121.232,73.580 121.232 C 73.672 121.232,73.009 120.483,72.107 119.567 C 71.204 118.651,70.391 117.902,70.300 117.902 C 70.208 117.902,70.871 118.651,71.774 119.567 M83.264 124.334 C 83.264 124.391,83.751 124.878,84.346 125.416 L 85.429 126.395 84.451 125.312 C 83.539 124.303,83.264 124.077,83.264 124.334 M79.101 126.561 C 80.003 127.477,80.816 128.226,80.908 128.226 C 80.999 128.226,80.336 127.477,79.434 126.561 C 78.532 125.645,77.719 124.896,77.627 124.896 C 77.535 124.896,78.199 125.645,79.101 126.561 M151.295 160.106 C 151.801 160.182,152.551 160.180,152.960 160.101 C 153.370 160.022,152.956 159.960,152.040 159.962 C 151.124 159.965,150.789 160.029,151.295 160.106 M74.604 167.277 C 74.604 167.415,130.695 167.490,199.251 167.445 C 267.806 167.400,303.664 167.325,278.934 167.279 C 158.367 167.052,74.604 167.052,74.604 167.277 M49.775 180.939 C 49.686 181.172,49.653 184.956,49.702 189.349 L 49.792 197.336 51.624 197.360 L 53.455 197.385 51.707 197.261 L 49.958 197.136 49.958 189.009 L 49.958 180.883 51.873 180.762 L 53.789 180.642 51.863 180.579 C 50.565 180.537,49.885 180.654,49.775 180.939 M78.084 180.942 C 77.994 181.175,77.961 184.435,78.011 188.186 L 78.102 195.004 82.931 195.018 L 87.760 195.031 83.014 194.925 L 78.268 194.820 78.268 187.842 L 78.268 180.864 84.513 180.766 L 90.758 180.667 84.502 180.592 C 79.679 180.534,78.210 180.614,78.084 180.942 M104.729 180.940 C 104.640 181.173,104.610 184.733,104.663 188.850 L 104.759 196.336 104.836 188.609 L 104.913 180.883 106.828 180.762 L 108.743 180.642 106.817 180.579 C 105.517 180.537,104.839 180.654,104.729 180.940 M134.038 180.940 C 133.948 181.174,133.919 184.658,133.972 188.684 L 134.069 196.003 134.145 188.434 L 134.221 180.865 140.133 180.766 L 146.045 180.666 140.123 180.591 C 135.578 180.534,134.163 180.615,134.038 180.940 M188.992 180.940 C 188.903 181.173,188.873 184.733,188.926 188.850 L 189.023 196.336 189.099 188.609 L 189.176 180.883 191.091 180.762 L 193.006 180.642 191.080 180.579 C 189.780 180.537,189.102 180.654,188.992 180.940 M345.195 180.942 C 345.105 181.175,345.072 184.435,345.122 188.186 L 345.212 195.004 350.042 195.018 L 354.871 195.031 350.125 194.925 L 345.379 194.820 345.379 187.842 L 345.379 180.864 351.624 180.766 L 357.868 180.667 351.613 180.592 C 346.790 180.534,345.321 180.614,345.195 180.942 M259.117 183.680 C 259.117 183.955,259.267 184.180,259.450 184.180 C 259.634 184.180,259.784 183.955,259.784 183.680 C 259.784 183.405,259.634 183.181,259.450 183.181 C 259.267 183.181,259.117 183.405,259.117 183.680 M309.230 200.167 C 309.230 209.417,309.273 213.201,309.325 208.576 C 309.378 203.951,309.378 196.382,309.325 191.757 C 309.273 187.132,309.230 190.916,309.230 200.167 M152.028 200.167 C 152.028 209.234,152.071 212.943,152.123 208.410 C 152.175 203.876,152.175 196.457,152.123 191.923 C 152.071 187.390,152.028 191.099,152.028 200.167 M173.676 200.167 C 173.676 209.234,173.719 212.943,173.772 208.410 C 173.824 203.876,173.824 196.457,173.772 191.923 C 173.719 187.390,173.676 191.099,173.676 200.167 M63.747 189.009 C 63.747 191.757,63.799 192.837,63.861 191.409 C 63.924 189.981,63.924 187.732,63.861 186.413 C 63.798 185.093,63.746 186.261,63.747 189.009 M14.399 186.511 C 14.399 187.152,14.467 187.415,14.551 187.094 C 14.635 186.774,14.635 186.249,14.551 185.928 C 14.467 185.608,14.399 185.870,14.399 186.511 M29.719 188.177 C 29.719 188.818,29.788 189.080,29.872 188.759 C 29.955 188.439,29.955 187.914,29.872 187.594 C 29.788 187.273,29.719 187.535,29.719 188.177 M384.109 189.675 C 384.111 190.591,384.176 190.926,384.252 190.420 C 384.329 189.914,384.327 189.164,384.248 188.755 C 384.169 188.345,384.106 188.759,384.109 189.675 M368.788 191.341 C 368.791 192.256,368.855 192.592,368.932 192.085 C 369.008 191.579,369.006 190.830,368.927 190.420 C 368.848 190.010,368.786 190.425,368.788 191.341 M14.100 193.172 C 14.100 194.546,14.159 195.108,14.231 194.421 C 14.303 193.734,14.303 192.610,14.231 191.923 C 14.159 191.236,14.100 191.799,14.100 193.172 M325.312 191.420 C 326.274 191.487,327.848 191.487,328.809 191.420 C 329.771 191.352,328.984 191.297,327.061 191.297 C 325.137 191.297,324.351 191.352,325.312 191.420 M29.427 195.337 C 29.426 196.986,29.482 197.702,29.552 196.929 C 29.622 196.156,29.623 194.807,29.554 193.932 C 29.485 193.056,29.428 193.689,29.427 195.337 M384.461 199.667 C 384.462 201.132,384.520 201.690,384.591 200.907 C 384.661 200.124,384.660 198.925,384.588 198.243 C 384.517 197.561,384.459 198.201,384.461 199.667 M29.427 204.996 C 29.426 206.644,29.482 207.361,29.552 206.588 C 29.622 205.815,29.623 204.466,29.554 203.590 C 29.485 202.715,29.428 203.347,29.427 204.996 M78.093 211.157 L 78.102 219.650 84.263 219.661 L 90.425 219.672 84.352 219.571 L 78.280 219.469 78.182 211.067 L 78.084 202.664 78.093 211.157 M345.203 211.157 L 345.212 219.650 351.374 219.661 L 357.535 219.672 351.463 219.571 L 345.390 219.469 345.292 211.067 L 345.194 202.664 345.203 211.157 M134.040 203.915 C 133.952 204.145,133.921 209.578,133.972 215.989 L 134.064 227.644 134.143 215.746 L 134.221 203.849 138.801 203.746 L 143.381 203.643 138.791 203.570 C 135.360 203.516,134.160 203.603,134.040 203.915 M14.100 206.162 C 14.100 207.535,14.159 208.097,14.231 207.410 C 14.303 206.724,14.303 205.600,14.231 204.913 C 14.159 204.226,14.100 204.788,14.100 206.162 M104.731 204.249 C 104.643 204.479,104.612 209.837,104.663 216.155 L 104.755 227.644 104.834 215.923 L 104.913 204.201 106.328 204.074 L 107.744 203.947 106.318 203.888 C 105.434 203.852,104.831 203.989,104.731 204.249 M188.994 204.249 C 188.906 204.479,188.875 209.837,188.926 216.155 L 189.018 227.644 189.097 215.923 L 189.176 204.201 190.591 204.074 L 192.007 203.947 190.581 203.888 C 189.697 203.852,189.094 203.989,188.994 204.249 M49.775 216.320 C 49.775 222.548,49.820 225.049,49.875 221.877 C 49.929 218.706,49.929 213.610,49.874 210.553 C 49.820 207.497,49.775 210.092,49.775 216.320 M368.788 208.993 C 368.791 209.908,368.855 210.244,368.932 209.737 C 369.008 209.231,369.006 208.482,368.927 208.072 C 368.848 207.662,368.786 208.077,368.788 208.993 M384.109 209.659 C 384.111 210.575,384.176 210.910,384.252 210.403 C 384.329 209.897,384.327 209.148,384.248 208.738 C 384.169 208.328,384.106 208.743,384.109 209.659 M111.715 217.152 C 111.715 221.091,111.763 222.702,111.822 220.733 C 111.881 218.764,111.881 215.541,111.822 213.572 C 111.763 211.603,111.715 213.214,111.715 217.152 M195.978 217.152 C 195.978 221.091,196.026 222.702,196.085 220.733 C 196.144 218.764,196.144 215.541,196.085 213.572 C 196.026 211.603,195.978 213.214,195.978 217.152 M29.726 212.323 C 29.730 213.056,29.798 213.316,29.878 212.902 C 29.957 212.488,29.954 211.888,29.871 211.570 C 29.787 211.251,29.722 211.590,29.726 212.323 M14.399 212.823 C 14.399 213.464,14.467 213.726,14.551 213.405 C 14.635 213.085,14.635 212.560,14.551 212.240 C 14.467 211.919,14.399 212.182,14.399 212.823 M368.437 214.155 C 368.437 214.796,368.506 215.058,368.589 214.738 C 368.673 214.417,368.673 213.893,368.589 213.572 C 368.506 213.251,368.437 213.514,368.437 214.155 M124.048 262.198 L 122.731 263.614 124.147 262.297 C 125.463 261.073,125.715 260.783,125.463 260.783 C 125.409 260.783,124.772 261.420,124.048 262.198 M107.410 290.758 C 108.313 291.674,109.126 292.423,109.217 292.423 C 109.309 292.423,108.646 291.674,107.744 290.758 C 106.841 289.842,106.028 289.092,105.937 289.092 C 105.845 289.092,106.508 289.842,107.410 290.758 M125.895 317.569 C 126.890 318.576,127.779 319.400,127.871 319.400 C 127.962 319.400,127.223 318.576,126.228 317.569 C 125.233 316.561,124.344 315.737,124.253 315.737 C 124.161 315.737,124.900 316.561,125.895 317.569 M123.064 320.733 C 123.780 321.465,124.440 322.065,124.532 322.065 C 124.623 322.065,124.113 321.465,123.397 320.733 C 122.682 320.000,122.021 319.400,121.930 319.400 C 121.838 319.400,122.349 320.000,123.064 320.733 M81.266 322.502 C 81.266 322.560,81.753 323.047,82.348 323.585 L 83.430 324.563 82.452 323.480 C 81.540 322.471,81.266 322.245,81.266 322.502 M329.886 330.808 L 326.561 334.221 329.975 330.897 C 331.853 329.069,333.389 327.533,333.389 327.483 C 333.389 327.242,332.973 327.637,329.886 330.808 M141.549 334.555 C 142.544 335.562,143.433 336.386,143.524 336.386 C 143.616 336.386,142.877 335.562,141.882 334.555 C 140.887 333.547,139.998 332.723,139.906 332.723 C 139.815 332.723,140.554 333.547,141.549 334.555 M186.826 368.943 L 185.679 370.192 186.928 369.044 C 188.090 367.975,188.330 367.694,188.075 367.694 C 188.020 367.694,187.458 368.256,186.826 368.943 M212.573 369.588 C 212.893 369.672,213.418 369.672,213.739 369.588 C 214.059 369.505,213.797 369.436,213.156 369.436 C 212.515 369.436,212.252 369.505,212.573 369.588 M207.249 369.931 C 207.755 370.007,208.504 370.005,208.914 369.926 C 209.323 369.847,208.909 369.785,207.993 369.787 C 207.077 369.790,206.742 369.854,207.249 369.931 M182.598 384.243 C 182.918 384.327,183.443 384.327,183.764 384.243 C 184.084 384.159,183.822 384.091,183.181 384.091 C 182.540 384.091,182.277 384.159,182.598 384.243 M187.098 384.582 C 187.512 384.662,188.112 384.659,188.430 384.575 C 188.749 384.492,188.410 384.427,187.677 384.430 C 186.944 384.434,186.684 384.502,187.098 384.582 M210.075 384.581 C 210.487 384.661,211.162 384.661,211.574 384.581 C 211.986 384.502,211.649 384.437,210.824 384.437 C 210.000 384.437,209.663 384.502,210.075 384.581 M195.920 384.928 C 197.706 384.988,200.629 384.988,202.415 384.928 C 204.201 384.868,202.739 384.819,199.167 384.819 C 195.595 384.819,194.134 384.868,195.920 384.928 " stroke="none" fill="#5e4542" fill-rule="evenodd"></path><path id="path4" d="M190.924 14.551 C 191.245 14.635,191.769 14.635,192.090 14.551 C 192.410 14.467,192.148 14.399,191.507 14.399 C 190.866 14.399,190.604 14.467,190.924 14.551 M206.245 14.551 C 206.565 14.635,207.090 14.635,207.410 14.551 C 207.731 14.467,207.469 14.399,206.828 14.399 C 206.187 14.399,205.924 14.467,206.245 14.551 M198.424 30.549 C 199.023 30.624,199.922 30.622,200.422 30.546 C 200.923 30.470,200.433 30.409,199.334 30.411 C 198.235 30.413,197.825 30.475,198.424 30.549 M267.188 52.956 C 267.188 53.597,267.257 53.859,267.340 53.539 C 267.424 53.218,267.424 52.694,267.340 52.373 C 267.257 52.052,267.188 52.315,267.188 52.956 M189.491 61.865 L 188.343 63.114 189.592 61.966 C 190.755 60.898,190.994 60.616,190.740 60.616 C 190.684 60.616,190.122 61.178,189.491 61.865 M325.396 64.113 C 326.017 64.754,326.600 65.279,326.692 65.279 C 326.783 65.279,326.350 64.754,325.729 64.113 C 325.107 63.472,324.524 62.948,324.432 62.948 C 324.341 62.948,324.774 63.472,325.396 64.113 M68.110 68.609 C 65.917 70.808,64.199 72.606,64.290 72.606 C 64.382 72.606,66.251 70.808,68.443 68.609 C 70.635 66.411,72.354 64.613,72.263 64.613 C 72.171 64.613,70.302 66.411,68.110 68.609 M334.721 73.439 C 335.342 74.080,335.926 74.604,336.017 74.604 C 336.109 74.604,335.676 74.080,335.054 73.439 C 334.433 72.798,333.849 72.273,333.758 72.273 C 333.666 72.273,334.100 72.798,334.721 73.439 M83.246 76.187 L 82.098 77.435 83.347 76.288 C 84.510 75.219,84.749 74.938,84.495 74.938 C 84.439 74.938,83.877 75.500,83.246 76.187 M319.067 80.100 C 320.248 81.291,321.288 82.265,321.380 82.265 C 321.471 82.265,320.581 81.291,319.400 80.100 C 318.220 78.909,317.180 77.935,317.088 77.935 C 316.997 77.935,317.887 78.909,319.067 80.100 M80.915 82.848 L 79.767 84.097 81.016 82.949 C 82.178 81.881,82.418 81.599,82.164 81.599 C 82.108 81.599,81.546 82.161,80.915 82.848 M74.920 84.513 L 73.772 85.762 75.021 84.614 C 76.183 83.546,76.423 83.264,76.169 83.264 C 76.113 83.264,75.551 83.826,74.920 84.513 M89.592 87.094 C 90.213 87.735,90.797 88.260,90.888 88.260 C 90.980 88.260,90.546 87.735,89.925 87.094 C 89.304 86.453,88.720 85.928,88.629 85.928 C 88.537 85.928,88.971 86.453,89.592 87.094 M85.262 96.087 C 86.257 97.094,87.146 97.918,87.238 97.918 C 87.329 97.918,86.590 97.094,85.595 96.087 C 84.600 95.079,83.711 94.255,83.620 94.255 C 83.528 94.255,84.267 95.079,85.262 96.087 M95.754 99.584 C 96.656 100.500,97.469 101.249,97.560 101.249 C 97.652 101.249,96.989 100.500,96.087 99.584 C 95.184 98.668,94.371 97.918,94.280 97.918 C 94.188 97.918,94.851 98.668,95.754 99.584 M287.094 106.078 C 287.715 106.719,288.299 107.244,288.390 107.244 C 288.482 107.244,288.049 106.719,287.427 106.078 C 286.806 105.437,286.222 104.913,286.131 104.913 C 286.039 104.913,286.473 105.437,287.094 106.078 M107.910 109.076 C 106.545 110.450,105.504 111.574,105.595 111.574 C 105.687 111.574,106.878 110.450,108.243 109.076 C 109.608 107.702,110.649 106.578,110.558 106.578 C 110.466 106.578,109.275 107.702,107.910 109.076 M98.571 109.659 C 99.951 111.129,100.250 111.394,100.250 111.143 C 100.250 111.090,99.538 110.378,98.668 109.561 L 97.086 108.077 98.571 109.659 M293.422 112.406 C 294.044 113.047,294.627 113.572,294.719 113.572 C 294.810 113.572,294.377 113.047,293.755 112.406 C 293.134 111.765,292.550 111.241,292.459 111.241 C 292.367 111.241,292.801 111.765,293.422 112.406 M66.611 114.675 C 66.611 114.733,67.098 115.220,67.694 115.758 L 68.776 116.736 67.798 115.654 C 66.886 114.645,66.611 114.418,66.611 114.675 M73.605 121.337 C 73.605 121.394,74.092 121.881,74.688 122.419 L 75.770 123.397 74.792 122.315 C 73.880 121.306,73.605 121.079,73.605 121.337 M301.241 200.167 C 301.241 215.279,301.282 221.461,301.332 213.905 C 301.382 206.349,301.382 193.984,301.332 186.428 C 301.282 178.872,301.241 185.054,301.241 200.167 M323.520 188.177 C 323.520 190.100,323.575 190.887,323.643 189.925 C 323.710 188.963,323.710 187.390,323.643 186.428 C 323.575 185.466,323.520 186.253,323.520 188.177 M234.091 189.259 C 234.026 189.854,234.049 198.734,234.144 208.993 L 234.316 227.644 234.394 207.910 C 234.465 189.682,234.412 186.364,234.091 189.259 M285.096 208.160 C 285.096 218.845,285.169 227.515,285.257 227.426 C 285.479 227.205,285.494 189.130,285.273 188.908 C 285.175 188.811,285.096 197.474,285.096 208.160 M368.783 194.172 C 368.783 194.996,368.848 195.333,368.928 194.921 C 369.007 194.509,369.007 193.834,368.928 193.422 C 368.848 193.010,368.783 193.347,368.783 194.172 M384.450 195.337 C 384.451 196.436,384.514 196.846,384.588 196.247 C 384.662 195.649,384.660 194.749,384.584 194.249 C 384.508 193.748,384.448 194.238,384.450 195.337 M143.342 199.833 C 143.342 202.123,143.396 203.060,143.461 201.915 C 143.526 200.770,143.526 198.897,143.461 197.752 C 143.396 196.607,143.342 197.544,143.342 199.833 M29.416 200.167 C 29.416 201.357,29.476 201.844,29.550 201.249 C 29.624 200.654,29.624 199.679,29.550 199.084 C 29.476 198.489,29.416 198.976,29.416 200.167 M384.450 203.997 C 384.451 205.096,384.514 205.505,384.588 204.907 C 384.662 204.308,384.660 203.409,384.584 202.908 C 384.508 202.408,384.448 202.898,384.450 203.997 M368.777 206.328 C 368.780 207.061,368.849 207.321,368.928 206.907 C 369.008 206.493,369.005 205.893,368.922 205.575 C 368.838 205.256,368.773 205.595,368.777 206.328 M323.542 207.597 C 323.450 207.838,323.422 209.748,323.481 211.844 L 323.588 215.654 323.659 211.585 L 323.730 207.517 327.144 207.409 L 330.558 207.301 327.134 207.231 C 324.565 207.178,323.667 207.270,323.542 207.597 M257.868 209.404 C 258.739 209.472,260.162 209.472,261.032 209.404 C 261.903 209.335,261.191 209.279,259.450 209.279 C 257.710 209.279,256.998 209.335,257.868 209.404 M118.978 222.814 C 118.978 223.455,119.047 223.718,119.130 223.397 C 119.214 223.077,119.214 222.552,119.130 222.231 C 119.047 221.911,118.978 222.173,118.978 222.814 M203.241 222.814 C 203.241 223.455,203.310 223.718,203.394 223.397 C 203.477 223.077,203.477 222.552,203.394 222.231 C 203.310 221.911,203.241 222.173,203.241 222.814 M75.874 227.726 C 78.679 227.782,83.175 227.782,85.866 227.726 C 88.556 227.670,86.261 227.625,80.766 227.625 C 75.271 227.625,73.069 227.671,75.874 227.726 M342.985 227.726 C 345.790 227.782,350.286 227.782,352.976 227.726 C 355.667 227.670,353.372 227.625,347.877 227.625 C 342.381 227.625,340.180 227.671,342.985 227.726 M74.489 232.390 C 74.350 232.615,158.075 232.615,279.101 232.388 C 303.922 232.342,268.073 232.267,199.437 232.222 C 130.801 232.177,74.574 232.252,74.489 232.390 M184.097 238.718 C 198.614 238.766,222.369 238.766,236.886 238.718 C 251.403 238.670,239.525 238.630,210.491 238.630 C 181.457 238.630,169.580 238.670,184.097 238.718 M103.913 287.198 C 103.913 287.256,104.400 287.743,104.996 288.281 L 106.078 289.259 105.100 288.177 C 104.188 287.168,103.913 286.941,103.913 287.198 M290.237 291.507 L 289.259 292.590 290.341 291.611 C 290.937 291.073,291.424 290.586,291.424 290.529 C 291.424 290.272,291.149 290.498,290.237 291.507 M107.321 304.746 C 107.321 305.387,107.390 305.649,107.474 305.329 C 107.557 305.008,107.557 304.484,107.474 304.163 C 107.390 303.843,107.321 304.105,107.321 304.746 M119.400 310.408 C 120.116 311.141,120.776 311.740,120.868 311.740 C 120.959 311.740,120.449 311.141,119.734 310.408 C 119.018 309.675,118.358 309.076,118.266 309.076 C 118.175 309.076,118.685 309.675,119.400 310.408 M322.065 317.236 C 321.256 318.060,320.669 318.734,320.761 318.734 C 320.852 318.734,321.589 318.060,322.398 317.236 C 323.207 316.411,323.794 315.737,323.702 315.737 C 323.611 315.737,322.874 316.411,322.065 317.236 M78.934 320.233 C 80.114 321.424,81.155 322.398,81.246 322.398 C 81.338 322.398,80.447 321.424,79.267 320.233 C 78.087 319.042,77.047 318.068,76.955 318.068 C 76.864 318.068,77.754 319.042,78.934 320.233 M316.070 323.231 C 315.261 324.055,314.674 324.729,314.766 324.729 C 314.857 324.729,315.594 324.055,316.403 323.231 C 317.212 322.406,317.799 321.732,317.707 321.732 C 317.616 321.732,316.879 322.406,316.070 323.231 M334.370 326.311 L 333.222 327.560 334.471 326.413 C 335.158 325.781,335.720 325.219,335.720 325.164 C 335.720 324.909,335.438 325.149,334.370 326.311 M68.110 330.724 C 70.119 332.739,71.837 334.388,71.929 334.388 C 72.020 334.388,70.452 332.739,68.443 330.724 C 66.434 328.709,64.716 327.061,64.624 327.061 C 64.533 327.061,66.101 328.709,68.110 330.724 M211.636 330.142 L 210.658 331.224 211.740 330.246 C 212.336 329.708,212.823 329.221,212.823 329.163 C 212.823 328.906,212.548 329.133,211.636 330.142 M144.713 331.724 C 145.985 333.006,147.101 334.055,147.193 334.055 C 147.284 334.055,146.318 333.006,145.046 331.724 C 143.773 330.441,142.657 329.392,142.566 329.392 C 142.474 329.392,143.440 330.441,144.713 331.724 M325.541 335.137 L 324.563 336.220 325.645 335.242 C 326.241 334.704,326.728 334.216,326.728 334.159 C 326.728 333.902,326.453 334.128,325.541 335.137 M191.840 369.766 C 191.840 369.909,192.440 370.025,193.172 370.025 C 193.905 370.025,194.505 369.966,194.505 369.893 C 194.505 369.821,193.905 369.705,193.172 369.635 C 192.440 369.565,191.840 369.624,191.840 369.766 M204.750 369.927 C 205.164 370.007,205.764 370.004,206.082 369.921 C 206.401 369.837,206.062 369.772,205.329 369.776 C 204.596 369.780,204.336 369.848,204.750 369.927 M191.257 384.909 C 191.578 384.993,192.102 384.993,192.423 384.909 C 192.744 384.825,192.481 384.757,191.840 384.757 C 191.199 384.757,190.937 384.825,191.257 384.909 M205.912 384.909 C 206.232 384.993,206.757 384.993,207.077 384.909 C 207.398 384.825,207.136 384.757,206.495 384.757 C 205.853 384.757,205.591 384.825,205.912 384.909 " stroke="none" fill="#343434" fill-rule="evenodd"></path></g></svg>